<?xml version="1.0" encoding="utf-8"?>
<!-- Generator: Adobe Illustrator 22.0.1, SVG Export Plug-In . SVG Version: 6.00 Build 0)  -->
<svg version="1.1" id="Capa_1" xmlns="http://www.w3.org/2000/svg" xmlns:xlink="http://www.w3.org/1999/xlink" x="0px" y="0px"
	 viewBox="0 0 141.7 137.9" style="enable-background:new 0 0 141.7 137.9;" xml:space="preserve">
<style type="text/css">
	.st0{fill:#284C63;}
	.st1{fill:none;stroke:#284C63;stroke-width:7;stroke-miterlimit:10;}
</style>
<g>
	<path class="st0" d="M95.4,36.1c4.8,0,8.7,3.9,8.7,8.7v48.3c0,4.8-3.9,8.7-8.7,8.7H46.2c-4.8,0-8.7-3.9-8.7-8.7V44.8
		c0-4.8,3.9-8.7,8.7-8.7H95.4 M95.4,30.1H46.2c-8.1,0-14.7,6.6-14.7,14.7v48.3c0,8.1,6.6,14.7,14.7,14.7h49.2
		c8.1,0,14.7-6.6,14.7-14.7V44.8C110.2,36.7,103.5,30.1,95.4,30.1L95.4,30.1z"/>
	<circle class="st1" cx="71.5" cy="69.4" r="18.8"/>
	<path class="st0" d="M104.8,38.9v11.9H87.5V32.6H49.8c-9.3,0-16.8,7.5-16.8,16.8V57h24.4c3.4-3.9,8.5-6.3,14.1-6.3
		s10.6,2.5,14.1,6.3h22.9v-7.6C108.5,45.4,107.1,41.7,104.8,38.9z"/>
</g>
</svg>
