<?xml version="1.0" encoding="utf-8"?>
<!-- Generator: Adobe Illustrator 22.0.1, SVG Export Plug-In . SVG Version: 6.00 Build 0)  -->
<svg version="1.1" id="Capa_1" xmlns="http://www.w3.org/2000/svg" xmlns:xlink="http://www.w3.org/1999/xlink" x="0px" y="0px"
	 viewBox="0 0 141.7 137.9" style="enable-background:new 0 0 141.7 137.9;" xml:space="preserve">
<style type="text/css">
	.st0{fill:#FFFFFF;}
	.st1{fill:none;stroke:#FFFFFF;stroke-width:7;stroke-miterlimit:10;}
</style>
<path class="st0" d="M96.7,35.9c4.8,0,8.7,3.9,8.7,8.7V93c0,4.8-3.9,8.7-8.7,8.7H47.5c-4.8,0-8.7-3.9-8.7-8.7V44.6
	c0-4.8,3.9-8.7,8.7-8.7H96.7 M96.7,29.9H47.5c-8.1,0-14.7,6.6-14.7,14.7V93c0,8.1,6.6,14.7,14.7,14.7h49.2c8.1,0,14.7-6.6,14.7-14.7
	V44.6C111.4,36.5,104.8,29.9,96.7,29.9L96.7,29.9z"/>
<circle class="st1" cx="72.7" cy="69.2" r="18.8"/>
<path class="st0" d="M106.1,38.7v11.9H88.7V32.4H51c-9.3,0-16.8,7.5-16.8,16.8v7.6h24.4c3.4-3.9,8.5-6.3,14.1-6.3s10.6,2.5,14.1,6.3
	h22.9v-7.6C109.7,45.2,108.4,41.6,106.1,38.7z"/>
</svg>
