<?xml version="1.0" encoding="utf-8"?>
<!-- Generator: Adobe Illustrator 22.0.1, SVG Export Plug-In . SVG Version: 6.00 Build 0)  -->
<svg version="1.1" id="Capa_1" xmlns="http://www.w3.org/2000/svg" xmlns:xlink="http://www.w3.org/1999/xlink" x="0px" y="0px"
	 viewBox="0 0 141.7 137.9" style="enable-background:new 0 0 141.7 137.9;" xml:space="preserve">
<style type="text/css">
	.st0{fill:#284C63;}
	.st1{fill:none;stroke:#284C63;stroke-width:7;stroke-miterlimit:10;}
	.st2{fill:none;stroke:#284C63;stroke-width:6.8159;stroke-miterlimit:10;}
	.st3{fill:none;stroke:#284C63;stroke-width:3.9029;stroke-miterlimit:10;}
</style>
<g>
	<path class="st0" d="M-51.1-15.4c4.8,0,8.7,3.9,8.7,8.7v48.3c0,4.8-3.9,8.7-8.7,8.7h-49.2c-4.8,0-8.7-3.9-8.7-8.7V-6.7
		c0-4.8,3.9-8.7,8.7-8.7H-51.1 M-51.1-21.4h-49.2c-8.1,0-14.7,6.6-14.7,14.7v48.3c0,8.1,6.6,14.7,14.7,14.7h49.2
		c8.1,0,14.7-6.6,14.7-14.7V-6.7C-36.3-14.8-43-21.4-51.1-21.4L-51.1-21.4z"/>
	<circle class="st1" cx="-75" cy="17.9" r="18.8"/>
	<path class="st0" d="M-41.7-12.6v11.9H-59v-18.2h-37.7c-9.3,0-16.8,7.5-16.8,16.8v7.6h24.4c3.4-3.9,8.5-6.3,14.1-6.3
		s10.6,2.5,14.1,6.3H-38v-7.6C-38-6.1-39.4-9.8-41.7-12.6z"/>
</g>
<g>
	<path class="st2" d="M-79.9,166.6h-48.2c-9.4,0-17.1-7.7-17.1-17.1v-36.3h82.4v36.3C-62.8,158.9-70.5,166.6-79.9,166.6z"/>
	<path class="st2" d="M-145.2,113.2l37.1,22.6c2.9,1.8,6.5,1.7,9.4-0.1l35.9-22.5"/>
</g>
<g>
	<rect x="32.7" y="54.1" class="st0" width="17.4" height="51.8"/>
	<circle class="st0" cx="41.6" cy="40.7" r="8.7"/>
	<path class="st0" d="M91.8,53.9L91.8,53.9L91.8,53.9c0,0-0.1,0-0.1,0c0,0-0.1,0-0.1,0h0v0C84.7,54,79,56,76.3,60.8v-6.5H58.8v51.4
		h15.5l0,0h2.1V75c0-4,3.3-7.3,7.3-7.3h0.3c4,0,7.3,3.3,7.3,7.3v30.6h0.2h0.2H109V70C109,60.4,101.3,54,91.8,53.9z"/>
</g>
<path class="st3" d="M-28.9-42.8h-42.4c-10,0-18.1-8.1-18.1-18.1v-42.4c0-10,8.1-18.1,18.1-18.1h42.4c10,0,18.1,8.1,18.1,18.1v42.4
	C-10.9-50.9-19-42.8-28.9-42.8z"/>
</svg>
