<?xml version="1.0" encoding="utf-8"?>
<!-- Generator: Adobe Illustrator 22.0.1, SVG Export Plug-In . SVG Version: 6.00 Build 0)  -->
<svg version="1.1" id="Capa_1" xmlns="http://www.w3.org/2000/svg" xmlns:xlink="http://www.w3.org/1999/xlink" x="0px" y="0px"
	 viewBox="0 0 141.7 137.9" style="enable-background:new 0 0 141.7 137.9;" xml:space="preserve">
<style type="text/css">
	.st0{fill:#284C63;}
	.st1{fill:none;stroke:#284C63;stroke-width:7;stroke-miterlimit:10;}
	.st2{fill:none;stroke:#284C63;stroke-width:6.8159;stroke-miterlimit:10;}
</style>
<g>
	<path class="st0" d="M-107.6,11.6c4.8,0,8.7,3.9,8.7,8.7v48.3c0,4.8-3.9,8.7-8.7,8.7h-49.2c-4.8,0-8.7-3.9-8.7-8.7V20.3
		c0-4.8,3.9-8.7,8.7-8.7H-107.6 M-107.6,5.6h-49.2c-8.1,0-14.7,6.6-14.7,14.7v48.3c0,8.1,6.6,14.7,14.7,14.7h49.2
		c8.1,0,14.7-6.6,14.7-14.7V20.3C-92.8,12.2-99.5,5.6-107.6,5.6L-107.6,5.6z"/>
	<circle class="st1" cx="-131.5" cy="44.9" r="18.8"/>
	<path class="st0" d="M-98.2,14.4v11.9h-17.3V8.1h-37.7c-9.3,0-16.8,7.5-16.8,16.8v7.6h24.4c3.4-3.9,8.5-6.3,14.1-6.3
		c5.6,0,10.6,2.5,14.1,6.3h22.9v-7.6C-94.5,20.9-95.9,17.2-98.2,14.4z"/>
</g>
<g>
	<path class="st2" d="M94.9,95.7H46.8c-9.4,0-17.1-7.7-17.1-17.1V42.2H112v36.3C112,88,104.4,95.7,94.9,95.7z"/>
	<path class="st2" d="M29.7,42.2l37.1,22.6c2.9,1.8,6.5,1.7,9.4-0.1L112,42.2"/>
</g>
</svg>
