<?xml version="1.0" encoding="utf-8"?>
<!-- Generator: Adobe Illustrator 22.0.1, SVG Export Plug-In . SVG Version: 6.00 Build 0)  -->
<svg version="1.1" id="Capa_1" xmlns="http://www.w3.org/2000/svg" xmlns:xlink="http://www.w3.org/1999/xlink" x="0px" y="0px"
	 viewBox="0 0 141.7 137.9" style="enable-background:new 0 0 141.7 137.9;" xml:space="preserve">
<style type="text/css">
	.st0{fill:#284C63;}
	.st1{fill:none;stroke:#284C63;stroke-width:7;stroke-miterlimit:10;}
	.st2{fill:none;stroke:#284C63;stroke-width:6.8159;stroke-miterlimit:10;}
	.st3{fill:none;stroke:#284C63;stroke-width:3.9029;stroke-miterlimit:10;}
	.st4{fill:#FFFFFF;}
</style>
<g>
	<path class="st0" d="M-63.6-8.9c4.8,0,8.7,3.9,8.7,8.7v48.3c0,4.8-3.9,8.7-8.7,8.7h-49.2c-4.8,0-8.7-3.9-8.7-8.7V-0.2
		c0-4.8,3.9-8.7,8.7-8.7H-63.6 M-63.6-14.9h-49.2c-8.1,0-14.7,6.6-14.7,14.7v48.3c0,8.1,6.6,14.7,14.7,14.7h49.2
		c8.1,0,14.7-6.6,14.7-14.7V-0.2C-48.8-8.3-55.5-14.9-63.6-14.9L-63.6-14.9z"/>
	<circle class="st1" cx="-87.5" cy="24.4" r="18.8"/>
	<path class="st0" d="M-54.2-6.1V5.8h-17.3v-18.2h-37.7c-9.3,0-16.8,7.5-16.8,16.8V12h24.4c3.4-3.9,8.5-6.3,14.1-6.3
		s10.6,2.5,14.1,6.3h22.9V4.4C-50.5,0.4-51.9-3.3-54.2-6.1z"/>
</g>
<g>
	<path class="st2" d="M-79.9,166.6h-48.2c-9.4,0-17.1-7.7-17.1-17.1v-36.3h82.4v36.3C-62.8,158.9-70.5,166.6-79.9,166.6z"/>
	<path class="st2" d="M-145.2,113.2l37.1,22.6c2.9,1.8,6.5,1.7,9.4-0.1l35.9-22.5"/>
</g>
<g>
	<rect x="-184.3" y="18.1" class="st0" width="17.4" height="51.8"/>
	<circle class="st0" cx="-175.4" cy="4.7" r="8.7"/>
	<path class="st0" d="M-125.2,17.9L-125.2,17.9L-125.2,17.9c0,0-0.1,0-0.1,0c0,0-0.1,0-0.1,0h0v0c-6.9,0-12.6,2.1-15.3,6.9v-6.5
		h-17.4v51.4h15.5l0,0h2.1V39c0-4,3.3-7.3,7.3-7.3h0.3c4,0,7.3,3.3,7.3,7.3v30.6h0.2h0.2h17.2V34C-108,24.4-115.7,18-125.2,17.9z"/>
</g>
<path class="st3" d="M-28.9-42.8h-42.4c-10,0-18.1-8.1-18.1-18.1v-42.4c0-10,8.1-18.1,18.1-18.1h42.4c10,0,18.1,8.1,18.1,18.1v42.4
	C-10.9-50.9-19-42.8-28.9-42.8z"/>
<g>
	<path class="st0" d="M108.6,44.5c-0.4,6.7-2.6,12.7-5.3,18.4c-8.7,19-21.7,34.1-40.6,43.6c-4.5,2.3-9.2,4.2-14.4,3.2
		c-2.6-0.5-5.3-1.8-7.6-3.3c-2.2-1.4-4.1-3.4-5.9-5.3c-2.2-2.2-2.3-5.1-0.3-7.4c3.2-3.7,6.4-7.4,9.7-11c2.6-2.8,5.1-2.9,8-0.4
		c2.3,2,4.7,3.9,6.9,6c1.6,1.5,2.8,1.4,4.5,0.1c9.7-7.3,17.4-16.2,23.4-26.7c2.9-5.1,2.8-5.2-1.5-9.2c-1.3-1.2-2.8-2.4-4.1-3.6
		c-2.6-2.4-2.9-5.3-0.7-7.9c3.2-3.8,6.5-7.6,9.9-11.2c2.2-2.4,4.5-2.7,7.1-0.7c2.9,2.2,6,4.4,8.2,7.3
		C107.4,38.6,107.7,41.8,108.6,44.5z M98.8,32.4c-1.3-0.8-3-2.6-4-2.3c-2.2,0.8-4.1,2.6-6.2,4.1C92.1,33.6,95.1,33,98.8,32.4z
		 M44,87c2.7-0.3,5.6-0.7,8.5-1C49.6,81.7,47.6,82,44,87z"/>
	<path class="st4" d="M98.8,32.4c-3.7,0.7-6.7,1.2-10.1,1.8c2.1-1.5,4-3.3,6.2-4.1C95.7,29.7,97.4,31.6,98.8,32.4z"/>
	<path class="st4" d="M44,87c3.6-5,5.6-5.3,8.5-1C49.6,86.3,46.7,86.7,44,87z"/>
</g>
</svg>
